<svg xmlns="http://www.w3.org/2000/svg" viewBox="0 0 256 256" width="256" height="256">
  <!-- Cloudflare cloud mark: two-tone orange -->
  <path fill="#FBAD41" d="M202.35 143.48c-.9-3.06-2.43-5.9-4.5-8.28l-.03-.03c1.9-6.9 1.4-13.42-1.5-18.9-2.9-5.5-8.1-9.5-14.6-11.3l-77.7-.98c-.5-.02-.95-.25-1.24-.63-.29-.38-.38-.88-.24-1.35.24-.86 1-1.46 1.9-1.5l78.4-.98c9.3-.42 19.4-7.96 22.9-17.2l4.5-11.7c.19-.5.24-1.04.13-1.56C205.9 30.7 178.5 8 145.9 8c-30 0-55.5 19.35-64.6 46.24-5.9-4.4-13.5-6.7-21.6-5.9-14.5 1.44-26.1 13.05-27.6 27.5-.38 3.75-.1 7.4.78 10.8C9.1 87.5 0 96.9 0 108.4c0 1.04.08 2.06.22 3.06.1.7.7 1.2 1.4 1.2h143.2c.02 0 .04 0 .06-.01 3.36-.9 5.7-3.9 5.7-7.4v-.05c.66 4.2.66 8.5 0 12.7h50.9c.7 0 1.3-.5 1.4-1.2.14-1 .22-2.02.22-3.06 0-1.2-.1-2.4-.29-3.56z"/>
  <path fill="#F6821F" d="M226.8 92.05c-.66 0-1.32.02-1.97.06-.46.02-.86.35-.98.8l-3.07 10.63c-1.32 4.55-.83 8.76 1.4 11.9 2.05 2.9 5.5 4.6 9.7 4.8l16.6 1c.5.02.94.25 1.22.63.28.38.37.87.24 1.34-.24.86-1 1.46-1.9 1.5l-17.25 1c-9.37.43-19.44 7.96-22.97 17.2l-1.24 3.23c-.24.63.22 1.28.9 1.28h59.4c.6 0 1.14-.4 1.3-.98 1.03-3.7 1.58-7.6 1.58-11.63 0-23.5-19.05-42.6-42.55-42.6l.01.01z"/>
</svg>
